<svg xmlns="http://www.w3.org/2000/svg" width="3000" height="1800" viewBox="0 0 3000 1800" version="1.1"><path d="M 752.335 377.397 C 750.226 379.816, 745.428 387.587, 741.674 394.666 C 732.052 412.809, 729.390 416.192, 721.806 419.916 C 718.018 421.775, 705.914 425.442, 691.500 429.096 C 614.818 448.538, 555.084 468.771, 483.500 499.547 C 440.281 518.129, 388.416 544.035, 353 564.732 C 347.775 567.785, 340.350 572.121, 336.500 574.366 C 319.877 584.062, 278.576 611.074, 264.409 621.515 C 244.420 636.248, 229 655.408, 229 665.513 C 229 668.504, 229.763 669.998, 232.882 673.118 C 239.925 680.160, 246.022 677.453, 249.993 665.521 C 254.029 653.391, 261.978 644.921, 286.917 626.173 C 323.626 598.577, 362.892 574.889, 411.500 551.017 C 437.002 538.493, 445.557 534.529, 474.250 521.942 C 531.452 496.849, 610.074 469.982, 674.728 453.434 C 698.322 447.395, 702.910 446.910, 706.116 450.116 C 709.641 453.641, 708.316 460.110, 701.156 474.337 C 682.540 511.331, 649.272 572.070, 620.004 622.500 C 598.425 659.681, 594.005 667.263, 579.490 692 C 571.906 704.925, 562.687 720.675, 559.004 727 C 537.530 763.873, 533.712 769.085, 524.919 773.541 C 522.377 774.829, 501.893 781.108, 479.399 787.494 C 428.710 801.885, 424.506 803.073, 408.891 807.416 C 383.738 814.412, 347.268 826.813, 337.893 831.558 C 329.251 835.931, 323 843.234, 323 848.957 C 323 851.758, 328.121 857.178, 339.632 866.557 C 344.993 870.926, 350.981 875.865, 352.940 877.534 C 356.813 880.834, 362.609 885.345, 367.030 888.500 C 368.572 889.600, 374.312 893.741, 379.786 897.702 C 385.260 901.663, 398.513 910.741, 409.236 917.875 C 419.960 925.009, 429.693 932.066, 430.867 933.558 C 432.529 935.671, 433 937.653, 433 942.541 C 433 948.447, 432.476 949.853, 424.016 966.656 C 419.074 976.470, 408.714 996.425, 400.992 1011 C 384.653 1041.839, 327.941 1154.576, 317.737 1176.500 C 313.898 1184.750, 307.633 1198.475, 303.817 1207 C 300 1215.525, 295.942 1224.525, 294.797 1227 C 289.922 1237.545, 278.970 1263.697, 266.321 1294.998 C 252.044 1330.325, 250.900 1337, 259.122 1337 C 265.673 1337, 268.101 1332.937, 299.937 1268.698 C 316.345 1235.589, 345.601 1176.550, 364.950 1137.500 C 404.724 1057.226, 421.266 1025.420, 445.662 982.310 C 453.227 968.940, 458.611 962.638, 463.521 961.405 C 470.872 959.560, 481.263 962.930, 496 971.938 C 522.160 987.927, 613.955 1033.008, 666.500 1055.670 C 702.336 1071.126, 742.911 1086.694, 794.500 1104.783 C 894.345 1139.792, 1025.477 1171.090, 1130.750 1185.039 C 1134.737 1185.568, 1141.487 1186.473, 1145.750 1187.050 C 1161.831 1189.229, 1196.816 1193.208, 1216 1195.040 C 1274.443 1200.619, 1340.220 1202.830, 1394.139 1201.026 C 1441.544 1199.441, 1449.189 1198.834, 1483.500 1193.931 C 1524.253 1188.107, 1571.570 1176.267, 1579.261 1169.969 L 1581.500 1168.136 1577.500 1166.447 C 1573.276 1164.662, 1571.111 1164.702, 1545.500 1167.032 C 1508.302 1170.416, 1493.298 1171.458, 1456.500 1173.213 C 1393.101 1176.236, 1308.583 1173.838, 1239 1167.042 C 1233.225 1166.478, 1226.025 1165.780, 1223 1165.492 C 1219.975 1165.205, 1213.787 1164.526, 1209.250 1163.984 C 1188.904 1161.557, 1183.055 1160.839, 1176.500 1159.964 C 1172.650 1159.451, 1164.100 1158.325, 1157.500 1157.463 C 1145.204 1155.857, 1139.317 1154.969, 1111.500 1150.523 C 1094.535 1147.811, 1086.238 1146.357, 1068.500 1142.986 C 1062.450 1141.837, 1055.250 1140.498, 1052.500 1140.012 C 1041.840 1138.128, 1012.744 1132.081, 999.500 1128.999 C 997.300 1128.487, 987.400 1126.211, 977.500 1123.941 C 956.658 1119.162, 935.148 1113.850, 923 1110.481 C 882.320 1099.200, 867.853 1094.939, 846 1087.803 C 740.299 1053.289, 669.271 1024.185, 572 975.532 C 535.498 957.274, 528.928 953.823, 497.406 936.347 C 477.009 925.039, 476.850 924.643, 485.888 907.602 C 518.295 846.501, 534.015 819.811, 544.329 808.382 C 551.660 800.259, 558.239 797.475, 618.500 776.998 C 649.947 766.312, 692.453 751.282, 717 742.167 C 751.107 729.503, 758.485 726.738, 773 721.178 C 851.798 690.994, 923.774 657.883, 992.500 620.201 C 1074.143 575.437, 1117.740 533.397, 1122.490 494.855 C 1123.866 483.684, 1118.524 467.829, 1109.445 456.137 C 1090.289 431.470, 1036.220 410.061, 975.500 403.102 C 957.067 400.989, 914.167 399.701, 902 400.894 C 895.675 401.515, 879.475 402.448, 866 402.969 C 852.525 403.490, 836.775 404.372, 831 404.929 C 825.225 405.485, 817.350 406.203, 813.500 406.524 C 809.650 406.845, 799.525 407.753, 791 408.542 C 768.397 410.634, 767.423 410.576, 763.791 406.944 C 760.811 403.965, 760.752 403.723, 761.422 397.194 C 761.800 393.513, 762.364 387.911, 762.675 384.748 C 763.845 372.849, 759.188 369.539, 752.335 377.397 M 856.500 423.088 C 803.261 427.416, 756.319 433.438, 748.355 436.961 C 739.838 440.728, 737.212 444.783, 716.345 486.392 C 683.847 551.191, 655.477 604.548, 614.201 678.500 C 579.838 740.065, 577.781 744.781, 583 750 C 587.183 754.183, 590.874 753.246, 654.500 731.843 C 794.396 684.783, 867.824 655.598, 951 613.994 C 1020.349 579.306, 1061.883 551.278, 1083.661 524.471 C 1093.917 511.847, 1097.512 502.401, 1096.792 489.968 C 1096.289 481.280, 1093.835 476.031, 1086.612 468.195 C 1066.794 446.695, 1010.350 428.142, 950.500 423.454 C 930.968 421.925, 873.560 421.701, 856.500 423.088 M 2287.500 503.389 C 2279.478 506.893, 2274.536 513.737, 2266.371 532.652 C 2261.379 544.215, 2251 571.164, 2251 572.563 C 2251 572.869, 2248.543 578.831, 2245.540 585.810 C 2240.394 597.771, 2226.526 625.295, 2189.268 697.500 C 2166.693 741.248, 2151.999 769.570, 2106.777 856.500 C 2099.910 869.700, 2087.983 892.650, 2080.274 907.500 C 2072.564 922.350, 2060.867 944.850, 2054.281 957.500 C 2047.694 970.150, 2038.353 988.150, 2033.523 997.500 C 2028.692 1006.850, 2023.517 1016.750, 2022.023 1019.500 C 2014.326 1033.663, 1987.830 1090.108, 1971.795 1126.500 C 1965.736 1140.250, 1959.290 1154.875, 1957.470 1159 C 1950.917 1173.847, 1948.832 1187.351, 1951.934 1194.842 C 1953.337 1198.227, 1957.407 1201, 1960.972 1201 C 1965.948 1201, 1976.253 1195.004, 1982.643 1188.390 C 1988.381 1182.451, 1990.104 1179.570, 1999.250 1160.632 C 2016.194 1125.545, 2035.636 1086.578, 2045.965 1067 C 2051.334 1056.825, 2057.978 1044.225, 2060.732 1039 C 2089.191 984.989, 2137.838 900.363, 2177.857 835.250 C 2182.335 827.962, 2189.550 816.212, 2193.889 809.139 C 2201.717 796.376, 2212.135 779.721, 2216.492 773 C 2217.741 771.075, 2220.901 766.125, 2223.515 762 C 2226.129 757.875, 2229.850 752.025, 2231.785 749 C 2236.451 741.706, 2273.886 685.634, 2277.594 680.386 C 2279.192 678.123, 2283.135 672.498, 2286.356 667.886 C 2299.713 648.761, 2330.591 607.841, 2346.895 587.659 C 2354.378 578.397, 2361.994 568.947, 2363.819 566.659 C 2371.939 556.483, 2380.453 549.927, 2388.244 547.852 C 2395.175 546.006, 2395.720 546.944, 2393.688 557.214 C 2392.786 561.771, 2391.549 568.200, 2390.939 571.500 C 2389.315 580.280, 2388.348 582.778, 2374.678 613.500 C 2361.268 643.638, 2359.652 647.277, 2354.249 659.500 C 2352.305 663.900, 2349.154 670.875, 2347.249 675 C 2345.344 679.125, 2340.425 689.925, 2336.318 699 C 2332.211 708.075, 2327.713 717.975, 2326.322 721 C 2324.931 724.025, 2319.169 736.850, 2313.517 749.500 C 2307.866 762.150, 2298.642 782.400, 2293.021 794.500 C 2287.399 806.600, 2274.471 834.725, 2264.292 857 C 2244.347 900.644, 2229.949 931.998, 2214.238 966 C 2199.520 997.851, 2191.937 1018.984, 2188.983 1036.380 C 2188.505 1039.196, 2187.453 1045.325, 2186.646 1050 C 2183.766 1066.674, 2182.814 1076.025, 2182.658 1089.170 C 2182.509 1101.720, 2182.657 1102.836, 2185.188 1108.236 C 2188.115 1114.480, 2196.319 1123.410, 2200.637 1125.052 C 2204.258 1126.429, 2208.153 1125.485, 2216.250 1121.268 C 2230.215 1113.995, 2233.391 1109.770, 2266.445 1054.500 C 2277.299 1036.350, 2287.199 1019.925, 2288.445 1018 C 2289.690 1016.075, 2294.445 1008.425, 2299.010 1001 C 2310.285 982.664, 2329.352 952.481, 2340.387 935.500 C 2350.567 919.836, 2423.660 810.293, 2429.132 802.500 C 2431.063 799.750, 2438.571 788.725, 2445.816 778 C 2465.886 748.292, 2466.389 747.623, 2470.065 745.752 C 2474.595 743.446, 2480.840 743.421, 2481.717 745.705 C 2483.573 750.542, 2478.063 766.605, 2458.974 812 C 2449.915 833.544, 2438.227 863.158, 2434.308 874.500 C 2431.129 883.698, 2425.544 899.189, 2420.968 911.500 C 2393.958 984.173, 2387.111 1008.947, 2387.031 1034.292 C 2386.938 1063.662, 2399.300 1085.393, 2422.395 1096.459 C 2432.570 1101.335, 2440.785 1103.601, 2453.737 1105.104 C 2489.801 1109.290, 2554.712 1088.272, 2615.500 1052.725 C 2652.798 1030.915, 2703.410 994.215, 2739.893 962.527 C 2745.609 957.562, 2752.671 951.475, 2755.588 949 C 2782.816 925.895, 2823.928 884.492, 2846.750 857.195 C 2850.188 853.084, 2853 849.402, 2853 849.015 C 2853 847.175, 2848.939 844.802, 2846.790 845.386 C 2844.645 845.970, 2830.145 856.317, 2822.584 862.660 C 2820.722 864.222, 2816.156 867.975, 2812.437 871 C 2808.718 874.025, 2803.108 878.750, 2799.970 881.500 C 2796.832 884.250, 2790.294 889.875, 2785.442 894 C 2780.589 898.125, 2773.194 904.650, 2769.008 908.500 C 2758.769 917.917, 2737.740 935.897, 2720.029 950.380 C 2712.038 956.914, 2701.143 965.847, 2695.817 970.231 C 2672.308 989.583, 2638.596 1013.564, 2616.791 1026.444 C 2581.565 1047.254, 2540.644 1066.864, 2518 1073.786 C 2504.519 1077.907, 2494.866 1079.361, 2481 1079.360 C 2468.924 1079.358, 2466.670 1079.072, 2459.634 1076.647 C 2434.512 1067.990, 2423.644 1046.473, 2426.980 1012 C 2428.355 997.800, 2430.595 984.780, 2434.034 971 C 2437.179 958.401, 2455.366 904.513, 2473.521 854 C 2477.178 843.825, 2481.431 831.900, 2482.972 827.500 C 2484.513 823.100, 2490.366 806.900, 2495.979 791.500 C 2501.592 776.100, 2508.343 757.200, 2510.981 749.500 C 2513.618 741.800, 2520.370 723.125, 2525.985 708 C 2547.302 650.575, 2552.039 636.921, 2552.639 631.176 C 2553.225 625.575, 2553.139 625.295, 2550.046 622.692 C 2544.007 617.611, 2536.991 619.970, 2525.645 630.898 C 2515.964 640.221, 2506.409 652.500, 2491.322 675 C 2484.131 685.725, 2471.697 704.175, 2463.690 716 C 2447.610 739.749, 2432.087 762.778, 2396.282 816 C 2383.147 835.525, 2366.822 859.600, 2360.004 869.500 C 2353.186 879.400, 2339.643 899.425, 2329.908 914 C 2270.617 1002.772, 2250.485 1031.328, 2240.195 1041.250 C 2234.690 1046.558, 2232.547 1048, 2230.165 1048 C 2226.176 1048, 2225.718 1046.290, 2226.907 1035.828 C 2228.054 1025.732, 2231.650 1011.150, 2236.501 996.922 C 2239.817 987.195, 2241.481 982.942, 2246.148 972.261 C 2247.167 969.929, 2248 967.636, 2248 967.165 C 2248 966.693, 2248.638 965.001, 2249.417 963.404 C 2250.196 961.807, 2259.181 939.800, 2269.384 914.500 C 2288.771 866.425, 2303.415 830.723, 2308.967 818 C 2320.887 790.681, 2337.445 753.737, 2351.703 722.645 C 2382.960 654.485, 2383.229 653.888, 2405.975 602.104 C 2416.819 577.415, 2427.133 545.708, 2429.586 529.516 C 2431.851 514.561, 2430.362 509.067, 2423.313 506.375 C 2419.511 504.924, 2418.158 504.865, 2413.212 505.942 C 2410.070 506.625, 2404.125 508.780, 2400 510.730 C 2393.565 513.771, 2390.649 516.138, 2379.471 527.387 C 2372.305 534.599, 2364.205 543.360, 2361.471 546.855 C 2358.737 550.350, 2354.925 555.140, 2353 557.499 C 2351.075 559.858, 2347.592 564.199, 2345.260 567.144 C 2342.929 570.090, 2336.170 578.575, 2330.240 586 C 2278.032 651.377, 2250.434 689.667, 2204.826 760 C 2180.249 797.900, 2164.597 821.857, 2162.528 824.741 C 2160.408 827.696, 2156.287 828.716, 2154.339 826.768 C 2152.365 824.794, 2153.880 821.528, 2198.528 731.500 C 2257.480 612.632, 2273.066 579.962, 2287.027 546 C 2302.571 508.187, 2302.296 509.260, 2297.711 504.250 C 2295.399 501.724, 2291.972 501.435, 2287.500 503.389 M 1662.500 693.874 C 1653.622 696.437, 1639.454 703.463, 1622 713.957 C 1607.897 722.436, 1577.133 742.488, 1571 747.199 C 1569.625 748.255, 1562.650 753.439, 1555.500 758.719 C 1548.350 763.998, 1540.025 770.286, 1537 772.692 C 1533.975 775.098, 1529.091 778.964, 1526.146 781.283 C 1521.204 785.176, 1513.740 791.355, 1494.066 807.840 C 1460.441 836.017, 1409.470 884.335, 1391.569 905 C 1373.481 925.881, 1365.788 936.013, 1354.095 954.351 C 1344.018 970.155, 1340.124 977.849, 1335.933 990.240 C 1333.968 996.048, 1332.005 1000.179, 1331.069 1000.474 C 1330.206 1000.746, 1319.868 1001.666, 1308.096 1002.520 C 1296.324 1003.373, 1286.277 1004.329, 1285.770 1004.642 C 1284.613 1005.357, 1259.313 1003.281, 1252.258 1001.892 C 1247.634 1000.982, 1246.415 1000.169, 1241.923 995.005 C 1238.723 991.326, 1235.281 988.527, 1232.665 987.477 C 1227.841 985.539, 1216.092 985.305, 1208.471 986.994 C 1200.676 988.722, 1171.757 997.718, 1158.140 1002.652 C 1139.840 1009.282, 1138.565 1007.419, 1151.250 992.584 C 1163.095 978.732, 1167.031 973.628, 1166.685 972.571 C 1164.788 966.779, 1153.676 972.674, 1131.528 991.222 L 1124.556 997.061 1115.028 996.429 C 1109.788 996.082, 1098.525 996.300, 1090 996.915 C 1081.475 997.529, 1065.050 998.306, 1053.500 998.641 C 1019.355 999.631, 1014.211 997.760, 1000.322 979.306 C 991.426 967.486, 982.972 964.700, 962.996 967 C 953.141 968.136, 951.800 968.097, 949.765 966.621 C 936.589 957.066, 927.348 955.256, 907.964 958.435 C 890.806 961.248, 874.075 966.486, 858.294 973.985 C 846.492 979.593, 841.120 983.594, 836.964 989.867 C 831.995 997.369, 833.797 1005.758, 841.206 1009.620 C 845.425 1011.820, 858.275 1012.612, 865.780 1011.135 C 868.926 1010.515, 874.959 1009.334, 879.187 1008.509 C 883.414 1007.684, 895.789 1004.802, 906.687 1002.104 C 930.759 996.145, 948.134 993.045, 961.702 992.287 C 974.129 991.593, 976.930 992.543, 981.193 998.892 C 993.890 1017.805, 1009.200 1024.030, 1042.881 1023.974 C 1060.643 1023.944, 1084.857 1022.608, 1099.328 1020.859 L 1109.156 1019.672 1112.871 1023.736 C 1122.345 1034.100, 1134.351 1033.643, 1166.500 1021.691 C 1180.462 1016.501, 1211.128 1008, 1215.890 1008 C 1218.595 1008, 1220.258 1009.117, 1225.465 1014.426 C 1233.079 1022.192, 1236.897 1023.597, 1254.843 1025.233 C 1275.204 1027.089, 1300.075 1024.117, 1320.223 1017.421 C 1330.733 1013.928, 1331.679 1014.199, 1335.567 1021.825 C 1339.459 1029.457, 1341.937 1032.267, 1348.500 1036.487 C 1355.067 1040.709, 1362.572 1043.412, 1373 1045.310 C 1384.327 1047.371, 1406.216 1049.326, 1409.706 1048.587 C 1411.243 1048.262, 1419.025 1047.529, 1427 1046.960 C 1440.963 1045.963, 1446.129 1045.414, 1463.500 1043.081 C 1479.895 1040.879, 1502.848 1037.573, 1512.500 1036.024 C 1515.800 1035.494, 1524.125 1034.169, 1531 1033.079 C 1562.679 1028.059, 1571.439 1026.579, 1600 1021.425 C 1616.775 1018.398, 1631.978 1015.449, 1633.785 1014.871 C 1638.350 1013.413, 1640.705 1009.686, 1639.035 1006.565 C 1636.489 1001.807, 1634.519 1001.500, 1606.600 1001.500 C 1576.785 1001.500, 1572.697 1001.927, 1515 1011.078 C 1489.711 1015.088, 1473.872 1017.383, 1456.500 1019.551 C 1433.983 1022.362, 1405.351 1023.467, 1392.072 1022.038 C 1376.394 1020.351, 1367.761 1017.644, 1362.700 1012.829 L 1358.712 1009.035 1359.268 1000.917 C 1359.778 993.473, 1360.363 991.707, 1366.309 979.649 C 1381.265 949.321, 1411.194 912.143, 1432.500 897.427 C 1442.434 890.566, 1489.137 859.582, 1499.667 852.867 C 1566.716 810.111, 1605.833 784.114, 1624.385 769.983 C 1668.854 736.109, 1682.893 722.618, 1688.081 708.772 C 1690.570 702.129, 1690.140 698.848, 1686.242 694.750 C 1683.822 692.207, 1683.058 692.005, 1676.063 692.071 C 1671.903 692.110, 1665.800 692.922, 1662.500 693.874 M 1611.946 745.939 C 1609.501 747.556, 1604.489 751.044, 1600.810 753.689 C 1597.130 756.335, 1587.531 763.225, 1579.478 769 C 1557.594 784.693, 1543.047 796.042, 1541.792 798.399 C 1541.177 799.555, 1539.959 801.048, 1539.087 801.718 C 1537.058 803.276, 1538.759 803.324, 1543.101 801.832 C 1546.713 800.591, 1556.057 794.106, 1589 769.975 C 1600.275 761.717, 1611.594 753.607, 1614.153 751.954 C 1619.269 748.649, 1620.633 746.468, 1618.895 744.373 C 1617.345 742.506, 1617.031 742.577, 1611.946 745.939 M 486 809.980 C 479.418 810.839, 476.320 811.710, 441.500 822.487 C 410.399 832.114, 404.905 833.721, 388.500 837.988 C 381.900 839.704, 375.488 841.770, 374.250 842.577 C 371.630 844.288, 371.256 848.492, 373.445 851.618 C 376.603 856.126, 440.520 901.902, 447.961 904.984 C 454.375 907.641, 456.557 905.047, 471.505 877 C 476.341 867.925, 484.666 852.625, 490.005 843 C 502.861 819.823, 504 817.512, 504 814.597 C 504 809.525, 499.106 808.270, 486 809.980 M 2823 1110.691 C 2818.028 1111.523, 2810.423 1114.367, 2806.831 1116.737 C 2801.029 1120.566, 2796 1128.899, 2796 1134.683 C 2796 1141.745, 2812.166 1149.765, 2821.041 1147.106 C 2829.762 1144.493, 2837.950 1135.235, 2837.984 1127.949 C 2838.008 1122.712, 2828.598 1108.936, 2825.816 1110.136 C 2825.642 1110.211, 2824.375 1110.461, 2823 1110.691" stroke="none" fill="#080404" fill-rule="evenodd"/></svg>