<?xml version="1.0" encoding="UTF-8"?>
<svg id="Layer_1" xmlns="http://www.w3.org/2000/svg" version="1.1" viewBox="0 0 3000 1800">
  <!-- Generator: Adobe Illustrator 30.0.0, SVG Export Plug-In . SVG Version: 2.1.1 Build 123)  -->
  <defs>
    <style>
      .st0 {
        fill: #fff;
        fill-rule: evenodd;
      }
    </style>
  </defs>
  <path class="st0" d="M752.34,377.4c-2.11,2.42-6.91,10.19-10.66,17.27-9.62,18.14-12.28,21.53-19.87,25.25-3.79,1.86-15.89,5.53-30.31,9.18-76.68,19.44-136.42,39.67-208,70.45-43.22,18.58-95.08,44.49-130.5,65.18-5.23,3.05-12.65,7.39-16.5,9.63-16.62,9.7-57.92,36.71-72.09,47.15-19.99,14.73-35.41,33.89-35.41,44,0,2.99.76,4.48,3.88,7.6,7.04,7.04,13.14,4.34,17.11-7.6,4.04-12.13,11.99-20.6,36.92-39.35,36.71-27.6,75.98-51.28,124.58-75.16,25.5-12.52,34.06-16.49,62.75-29.08,57.2-25.09,135.82-51.96,200.48-68.51,23.59-6.04,28.18-6.52,31.39-3.32,3.52,3.52,2.2,9.99-4.96,24.22-18.62,36.99-51.88,97.73-81.15,148.16-21.58,37.18-26,44.76-40.51,69.5-7.58,12.92-16.8,28.67-20.49,35-21.47,36.87-25.29,42.09-34.09,46.54-2.54,1.29-23.03,7.57-45.52,13.95-50.69,14.39-54.89,15.58-70.51,19.92-25.15,7-61.62,19.4-71,24.14-8.64,4.37-14.89,11.68-14.89,17.4,0,2.8,5.12,8.22,16.63,17.6,5.36,4.37,11.35,9.31,13.31,10.98,3.87,3.3,9.67,7.81,14.09,10.97,1.54,1.1,7.28,5.24,12.76,9.2s18.73,13.04,29.45,20.17c10.72,7.13,20.46,14.19,21.63,15.68,1.66,2.11,2.13,4.1,2.13,8.98,0,5.91-.52,7.31-8.98,24.11-4.94,9.81-15.3,29.77-23.02,44.34-16.34,30.84-73.05,143.58-83.26,165.5-3.84,8.25-10.1,21.97-13.92,30.5-3.82,8.53-7.88,17.53-9.02,20-4.88,10.55-15.83,36.7-28.48,68-14.28,35.33-15.42,42-7.2,42,6.55,0,8.98-4.06,40.82-68.3,16.41-33.11,45.66-92.15,65.01-131.2,39.77-80.27,56.32-112.08,80.71-155.19,7.57-13.37,12.95-19.67,17.86-20.9,7.35-1.85,17.74,1.52,32.48,10.53,26.16,15.99,117.96,61.07,170.5,83.73,35.84,15.46,76.41,31.02,128,49.11,99.84,35.01,230.98,66.31,336.25,80.26,3.99.53,10.74,1.43,15,2.01,16.08,2.18,51.07,6.16,70.25,7.99,58.44,5.58,124.22,7.79,178.14,5.99,47.4-1.58,55.05-2.19,89.36-7.09,40.75-5.82,88.07-17.66,95.76-23.96l2.24-1.83-4-1.69c-4.22-1.79-6.39-1.74-32,.58-37.2,3.38-52.2,4.43-89,6.18-63.4,3.02-147.92.62-217.5-6.17-5.78-.56-12.97-1.26-16-1.55-3.03-.29-9.21-.97-13.75-1.51-20.35-2.43-26.19-3.15-32.75-4.02-3.85-.51-12.4-1.64-19-2.5-12.3-1.61-18.18-2.49-46-6.94-16.96-2.71-25.26-4.17-43-7.54-6.05-1.15-13.25-2.49-16-2.97-10.66-1.88-39.76-7.93-53-11.01-2.2-.51-12.1-2.79-22-5.06-20.84-4.78-42.35-10.09-54.5-13.46-40.68-11.28-55.15-15.54-77-22.68-105.7-34.51-176.73-63.62-274-112.27-36.5-18.26-43.07-21.71-74.59-39.18-20.4-11.31-20.56-11.7-11.52-28.74,32.41-61.1,48.13-87.79,58.44-99.22,7.33-8.12,13.91-10.91,74.17-31.38,31.45-10.69,73.95-25.72,98.5-34.83,34.11-12.66,41.48-15.43,56-20.99,78.8-30.18,150.77-63.29,219.5-100.98,81.64-44.76,125.24-86.8,129.99-125.35,1.38-11.17-3.97-27.03-13.05-38.72-19.16-24.67-73.22-46.08-133.94-53.04-18.43-2.11-61.33-3.4-73.5-2.21-6.33.62-22.53,1.55-36,2.07s-29.22,1.4-35,1.96c-5.78.56-13.65,1.27-17.5,1.6-3.85.32-13.97,1.23-22.5,2.02-22.6,2.09-23.58,2.03-27.21-1.6-2.98-2.98-3.04-3.22-2.37-9.75.38-3.68.94-9.28,1.25-12.45,1.17-11.9-3.49-15.21-10.34-7.35M856.5,423.09c-53.24,4.33-100.18,10.35-108.15,13.87-8.52,3.77-11.14,7.82-32.01,49.43-32.5,64.8-60.87,118.16-102.14,192.11-34.36,61.57-36.42,66.28-31.2,71.5,4.18,4.18,7.87,3.25,71.5-18.16,139.9-47.06,213.32-76.24,296.5-117.85,69.35-34.69,110.88-62.72,132.66-89.52,10.26-12.62,13.85-22.07,13.13-34.5-.5-8.69-2.96-13.94-10.18-21.77-19.82-21.5-76.26-40.05-136.11-44.74-19.53-1.53-76.94-1.75-94-.37M2287.5,503.39c-8.02,3.5-12.96,10.35-21.13,29.26-4.99,11.56-15.37,38.51-15.37,39.91,0,.31-2.46,6.27-5.46,13.25-5.15,11.96-19.01,39.48-56.27,111.69-22.57,43.75-37.27,72.07-82.49,159-6.87,13.2-18.79,36.15-26.5,51-7.71,14.85-19.41,37.35-25.99,50-6.59,12.65-15.93,30.65-20.76,40-4.83,9.35-10.01,19.25-11.5,22-7.7,14.16-34.19,70.61-50.23,107-6.06,13.75-12.51,28.38-14.33,32.5-6.55,14.85-8.64,28.35-5.54,35.84,1.4,3.39,5.47,6.16,9.04,6.16,4.98,0,15.28-6,21.67-12.61,5.74-5.94,7.46-8.82,16.61-27.76,16.94-35.09,36.39-74.05,46.71-93.63,5.37-10.18,12.01-22.78,14.77-28,28.46-54.01,77.11-138.64,117.12-203.75,4.48-7.29,11.69-19.04,16.03-26.11,7.83-12.76,18.25-29.42,22.6-36.14,1.25-1.92,4.41-6.88,7.02-11s6.34-9.97,8.27-13c4.67-7.29,42.1-63.37,45.81-68.61,1.6-2.26,5.54-7.89,8.76-12.5,13.36-19.12,44.24-60.04,60.54-80.23,7.48-9.26,15.1-18.71,16.92-21,8.12-10.18,16.63-16.73,24.42-18.81,6.93-1.85,7.48-.91,5.44,9.36-.9,4.56-2.14,10.99-2.75,14.29-1.62,8.78-2.59,11.28-16.26,42-13.41,30.14-15.03,33.78-20.43,46-1.94,4.4-5.09,11.38-7,15.5s-6.82,14.92-10.93,24c-4.11,9.08-8.61,18.97-10,22-1.39,3.03-7.15,15.85-12.8,28.5-5.65,12.65-14.88,32.9-20.5,45-5.62,12.1-18.55,40.22-28.73,62.5-19.95,43.64-34.34,75-50.05,109-14.72,31.85-22.3,52.98-25.26,70.38-.48,2.82-1.53,8.94-2.34,13.62-2.88,16.67-3.83,26.03-3.99,39.17-.15,12.55,0,13.67,2.53,19.07,2.93,6.24,11.13,15.17,15.45,16.82,3.62,1.38,7.52.43,15.61-3.78,13.97-7.27,17.14-11.5,50.2-66.77,10.85-18.15,20.75-34.58,22-36.5,1.24-1.92,6-9.58,10.56-17,11.27-18.34,30.34-48.52,41.38-65.5,10.18-15.66,83.27-125.21,88.75-133,1.93-2.75,9.44-13.78,16.68-24.5,20.07-29.71,20.57-30.38,24.25-32.25,4.53-2.31,10.78-2.33,11.65-.05,1.86,4.84-3.65,20.9-22.74,66.29-9.06,21.54-20.75,51.16-24.67,62.5-3.18,9.2-8.76,24.69-13.34,37-27.01,72.67-33.86,97.45-33.94,122.79-.09,29.37,12.27,51.1,35.36,62.17,10.18,4.88,18.39,7.14,31.34,8.65,36.06,4.19,100.97-16.83,161.76-52.38,37.3-21.81,87.91-58.51,124.39-90.2,5.72-4.96,12.78-11.05,15.69-13.53,27.23-23.1,68.34-64.51,91.16-91.8,3.44-4.11,6.25-7.79,6.25-8.18,0-1.84-4.06-4.21-6.21-3.63-2.15.58-16.65,10.93-24.21,17.27-1.86,1.56-6.43,5.32-10.15,8.34s-9.33,7.75-12.47,10.5-9.68,8.38-14.53,12.5c-4.85,4.12-12.25,10.65-16.43,14.5-10.24,9.42-31.27,27.4-48.98,41.88-7.99,6.53-18.89,15.47-24.21,19.85-23.51,19.35-57.22,43.33-79.03,56.21-35.23,20.81-76.15,40.42-98.79,47.34-13.48,4.12-23.13,5.57-37,5.57-12.08,0-14.33-.29-21.37-2.71-25.12-8.66-35.99-30.17-32.65-64.65,1.38-14.2,3.61-27.22,7.05-41,3.15-12.6,21.33-66.49,39.49-117,3.66-10.17,7.91-22.1,9.45-26.5s7.39-20.6,13.01-36,12.36-34.3,15-42c2.64-7.7,9.39-26.38,15-41.5,21.32-57.42,26.05-71.08,26.65-76.82.59-5.6.5-5.88-2.59-8.48-6.04-5.08-13.05-2.72-24.4,8.21-9.68,9.32-19.24,21.6-34.32,44.1-7.19,10.72-19.62,29.17-27.63,41-16.08,23.75-31.6,46.78-67.41,100-13.14,19.53-29.46,43.6-36.28,53.5-6.82,9.9-20.36,29.92-30.1,44.5-59.29,88.77-79.42,117.33-89.71,127.25-5.51,5.31-7.65,6.75-10.03,6.75-3.99,0-4.45-1.71-3.26-12.17,1.15-10.1,4.74-24.68,9.59-38.91,3.32-9.73,4.98-13.98,9.65-24.66,1.02-2.33,1.85-4.62,1.85-5.1s.64-2.16,1.42-3.76,9.76-23.6,19.97-48.9c19.39-48.08,34.03-83.78,39.58-96.5,11.92-27.32,28.48-64.26,42.74-95.35,31.26-68.16,31.53-68.76,54.27-120.54,10.84-24.69,21.16-56.4,23.61-72.59,2.27-14.96.78-20.45-6.27-23.14-3.8-1.45-5.16-1.51-10.1-.43-3.14.68-9.09,2.84-13.21,4.79-6.44,3.04-9.35,5.41-20.53,16.66-7.17,7.21-15.27,15.97-18,19.47-2.73,3.49-6.55,8.29-8.47,10.64-1.93,2.36-5.41,6.7-7.74,9.64-2.33,2.95-9.09,11.43-15.02,18.86-52.21,65.38-79.81,103.67-125.41,174-24.58,37.9-40.23,61.86-42.3,64.74-2.12,2.95-6.24,3.97-8.19,2.03-1.97-1.97-.46-5.24,44.19-95.27,58.95-118.87,74.54-151.54,88.5-185.5,15.54-37.81,15.27-36.74,10.68-41.75-2.31-2.53-5.74-2.82-10.21-.86M1662.5,693.87c-8.88,2.56-23.05,9.59-40.5,20.08-14.1,8.48-44.87,28.53-51,33.24-1.38,1.06-8.35,6.24-15.5,11.52-7.15,5.28-15.47,11.57-18.5,13.97s-7.91,6.27-10.85,8.59c-4.94,3.89-12.41,10.07-32.08,26.56-33.62,28.18-84.6,76.49-102.5,97.16-18.09,20.88-25.78,31.01-37.47,49.35-10.08,15.8-13.97,23.5-18.16,35.89-1.96,5.81-3.93,9.94-4.86,10.23-.86.27-11.2,1.19-22.97,2.05-11.77.85-21.82,1.81-22.33,2.12-1.16.71-26.46-1.36-33.51-2.75-4.62-.91-5.84-1.72-10.34-6.89-3.2-3.68-6.64-6.48-9.26-7.53-4.82-1.94-16.57-2.17-24.19-.48-7.79,1.73-36.71,10.72-50.33,15.66-18.3,6.63-19.58,4.77-6.89-10.07,11.84-13.85,15.78-18.96,15.44-20.01-1.9-5.79-13.01.1-35.16,18.65l-6.97,5.84-9.53-.63c-5.24-.35-16.5-.13-25.03.49-8.53.61-24.95,1.39-36.5,1.73-34.15.99-39.29-.88-53.18-19.33-8.9-11.82-17.35-14.61-37.33-12.31-9.85,1.14-11.2,1.1-13.23-.38-13.18-9.55-22.42-11.36-41.8-8.19-17.16,2.81-33.89,8.05-49.67,15.55-11.8,5.61-17.17,9.61-21.33,15.88-4.97,7.5-3.17,15.89,4.24,19.75,4.22,2.2,17.07,2.99,24.57,1.52,3.15-.62,9.18-1.8,13.41-2.63,4.23-.82,16.6-3.71,27.5-6.4,24.07-5.96,41.45-9.06,55.02-9.82,12.43-.69,15.23.26,19.49,6.61,12.7,18.91,28.01,25.14,61.69,25.08,17.76-.03,41.98-1.37,56.45-3.11l9.83-1.19,3.71,4.06c9.47,10.36,21.48,9.91,53.63-2.05,13.96-5.19,44.63-13.69,49.39-13.69,2.7,0,4.37,1.12,9.57,6.43,7.61,7.77,11.43,9.17,29.38,10.81,20.36,1.86,45.23-1.12,65.38-7.81,10.51-3.49,11.46-3.22,15.34,4.4,3.89,7.63,6.37,10.44,12.93,14.66,6.57,4.22,14.07,6.92,24.5,8.82,11.33,2.06,33.22,4.02,36.71,3.28,1.54-.33,9.32-1.06,17.29-1.63,13.96-1,19.13-1.55,36.5-3.88,16.4-2.2,39.35-5.51,49-7.06,3.3-.53,11.62-1.86,18.5-2.95,31.68-5.02,40.44-6.5,69-11.65,16.78-3.03,31.98-5.98,33.79-6.55,4.56-1.46,6.92-5.18,5.25-8.31-2.55-4.76-4.52-5.07-32.44-5.07-29.81,0-33.9.43-91.6,9.58-25.29,4.01-41.13,6.3-58.5,8.47-22.52,2.81-51.15,3.92-64.43,2.49-15.68-1.69-24.31-4.39-29.37-9.21l-3.99-3.79.56-8.12c.51-7.44,1.1-9.21,7.04-21.27,14.96-30.33,44.89-67.51,66.19-82.22,9.93-6.86,56.64-37.85,67.17-44.56,67.05-42.76,106.17-68.75,124.72-82.88,44.47-33.87,58.51-47.36,63.7-61.21,2.49-6.64,2.06-9.92-1.84-14.02-2.42-2.54-3.18-2.74-10.18-2.68-4.16.04-10.26.85-13.56,1.8M1611.95,745.94c-2.45,1.62-7.46,5.1-11.14,7.75-3.68,2.65-13.28,9.54-21.33,15.31-21.88,15.69-36.43,27.04-37.69,29.4-.61,1.16-1.83,2.65-2.7,3.32-2.03,1.56-.33,1.61,4.01.11,3.61-1.24,12.96-7.73,45.9-31.86,11.28-8.26,22.59-16.37,25.15-18.02,5.12-3.3,6.48-5.49,4.74-7.58-1.55-1.87-1.86-1.8-6.95,1.57M486,809.98c-6.58.86-9.68,1.73-44.5,12.51-31.1,9.63-36.6,11.23-53,15.5-6.6,1.72-13.01,3.78-14.25,4.59-2.62,1.71-2.99,5.91-.8,9.04,3.16,4.51,67.07,50.28,74.52,53.37,6.41,2.66,8.6.06,23.54-27.98,4.84-9.08,13.16-24.38,18.5-34,12.86-23.18,13.99-25.49,13.99-28.4,0-5.07-4.89-6.33-18-4.62M2823,1110.69c-4.97.83-12.58,3.68-16.17,6.05-5.8,3.83-10.83,12.16-10.83,17.95,0,7.06,16.17,15.08,25.04,12.42,8.72-2.61,16.91-11.87,16.94-19.16.02-5.24-9.39-19.01-12.17-17.81-.17.08-1.44.33-2.82.56"/>
</svg>